# xmcd
#
# Track frame offsets:
# 150
# 10657
# 18900
# 29948
# 45285
# 55244
# 79260
# 100546
# 120573
# 131779
# 154856
# 166777
# 184289
# 198533
# 215327
#
# Disc length: 3073 seconds
#
#
# Revision: 0
# Processed by: cddbd v1.5.2PL0 Copyright (c) Steve Scherf et al.
# Submitted via: FreeRIP 2.96 
#
DISCID=c20bff0f
DTITLE=MPB - Os melhores da MPB - Os melhores da MPB
DYEAR=2007
DGENRE=MPB
TTITLE0=Álibi/ Maria Bethania
TTITLE1=Todo amor que houver nesta vida - Maria bethania
TTITLE2=Apesar de você/ Maria Bethania
TTITLE3=Baila comigo/ Shangrila/ Maria Bethania
TTITLE4=Casinha Branca/ Maria Bethania
TTITLE5=A paz/ João Donato/ Gilberto Gil
TTITLE6=Simples Carinho - João Donato - Angela Rô Rô
TTITLE7=Tarde em Itapoã/ Toquinho
TTITLE8=CArta ao Tom 74/ Toquinho
TTITLE9=Aquarela/ Toquinho
TTITLE10=Samba de Orly/ Toquinho
TTITLE11=Cehga de saudade/ Tom Jobim
TTITLE12=Samba de uma nota só/ Tom Jobim
TTITLE13=Esotérico/ Doces Barbaros
TTITLE14=Ela faz cinema/ Chico Buarque
EXTD=
EXTT0=
EXTT1=
EXTT2=
EXTT3=
EXTT4=
EXTT5=
EXTT6=
EXTT7=
EXTT8=
EXTT9=
EXTT10=
EXTT11=
EXTT12=
EXTT13=
EXTT14=
PLAYORDER=
